<svg id="visual" viewBox="0 0 900 450" width="900" height="450" xmlns="http://www.w3.org/2000/svg" xmlns:xlink="http://www.w3.org/1999/xlink" version="1.1"><g stroke-width="1" stroke-linejoin="bevel"><path d="M454 246L469 339.5L545.5 218Z" fill="#15384f" stroke="#15384f"></path><path d="M469 339.5L570.5 344.5L545.5 218Z" fill="#277297" stroke="#277297"></path><path d="M570.5 344.5L650 207L545.5 218Z" fill="#297ea6" stroke="#297ea6"></path><path d="M579.5 450L660 355.5L570.5 344.5Z" fill="#0c2435" stroke="#0c2435"></path><path d="M570.5 344.5L660 355.5L650 207Z" fill="#246688" stroke="#246688"></path><path d="M650 207L560.5 126.5L545.5 218Z" fill="#246688" stroke="#246688"></path><path d="M545.5 218L461 105.5L454 246Z" fill="#0c2435" stroke="#0c2435"></path><path d="M469 339.5L579.5 450L570.5 344.5Z" fill="#297ea6" stroke="#297ea6"></path><path d="M351.5 361.5L449 450L469 339.5Z" fill="#277297" stroke="#277297"></path><path d="M469 339.5L449 450L579.5 450Z" fill="#081a28" stroke="#081a28"></path><path d="M454 246L351.5 361.5L469 339.5Z" fill="#19435d" stroke="#19435d"></path><path d="M560.5 126.5L461 105.5L545.5 218Z" fill="#15384f" stroke="#15384f"></path><path d="M454 246L327.5 229L351.5 361.5Z" fill="#205a7a" stroke="#205a7a"></path><path d="M461 105.5L327.5 229L454 246Z" fill="#00101c" stroke="#00101c"></path><path d="M650 207L663 123.5L560.5 126.5Z" fill="#205a7a" stroke="#205a7a"></path><path d="M569.5 0L464 0L461 105.5Z" fill="#112e42" stroke="#112e42"></path><path d="M799.5 215L663 123.5L650 207Z" fill="#0c2435" stroke="#0c2435"></path><path d="M216 450L352.5 450L351.5 361.5Z" fill="#205a7a" stroke="#205a7a"></path><path d="M351.5 361.5L352.5 450L449 450Z" fill="#15384f" stroke="#15384f"></path><path d="M579.5 450L682 450L660 355.5Z" fill="#19435d" stroke="#19435d"></path><path d="M660 355.5L796.5 330.5L650 207Z" fill="#205a7a" stroke="#205a7a"></path><path d="M461 105.5L318.5 121.5L327.5 229Z" fill="#112e42" stroke="#112e42"></path><path d="M327.5 229L242 324.5L351.5 361.5Z" fill="#19435d" stroke="#19435d"></path><path d="M221 234L242 324.5L327.5 229Z" fill="#246688" stroke="#246688"></path><path d="M762.5 450L796.5 330.5L660 355.5Z" fill="#246688" stroke="#246688"></path><path d="M569.5 0L461 105.5L560.5 126.5Z" fill="#1d4e6b" stroke="#1d4e6b"></path><path d="M461 105.5L333.5 0L318.5 121.5Z" fill="#081a28" stroke="#081a28"></path><path d="M663 123.5L569.5 0L560.5 126.5Z" fill="#00101c" stroke="#00101c"></path><path d="M796.5 330.5L799.5 215L650 207Z" fill="#0c2435" stroke="#0c2435"></path><path d="M663 123.5L673 0L569.5 0Z" fill="#00101c" stroke="#00101c"></path><path d="M682 450L762.5 450L660 355.5Z" fill="#277297" stroke="#277297"></path><path d="M223 131.5L221 234L327.5 229Z" fill="#1d4e6b" stroke="#1d4e6b"></path><path d="M768.5 0L673 0L663 123.5Z" fill="#205a7a" stroke="#205a7a"></path><path d="M799.5 215L803.5 125.5L663 123.5Z" fill="#297ea6" stroke="#297ea6"></path><path d="M900 230L803.5 125.5L799.5 215Z" fill="#205a7a" stroke="#205a7a"></path><path d="M223 0L223 131.5L318.5 121.5Z" fill="#081a28" stroke="#081a28"></path><path d="M318.5 121.5L223 131.5L327.5 229Z" fill="#081a28" stroke="#081a28"></path><path d="M464 0L333.5 0L461 105.5Z" fill="#297ea6" stroke="#297ea6"></path><path d="M130.5 328.5L216 450L242 324.5Z" fill="#00101c" stroke="#00101c"></path><path d="M242 324.5L216 450L351.5 361.5Z" fill="#297ea6" stroke="#297ea6"></path><path d="M130.5 328.5L242 324.5L221 234Z" fill="#15384f" stroke="#15384f"></path><path d="M803.5 125.5L768.5 0L663 123.5Z" fill="#00101c" stroke="#00101c"></path><path d="M900 450L900 325.5L796.5 330.5Z" fill="#00101c" stroke="#00101c"></path><path d="M796.5 330.5L900 230L799.5 215Z" fill="#19435d" stroke="#19435d"></path><path d="M803.5 125.5L900 93.5L768.5 0Z" fill="#277297" stroke="#277297"></path><path d="M131.5 212L130.5 328.5L221 234Z" fill="#081a28" stroke="#081a28"></path><path d="M900 325.5L900 230L796.5 330.5Z" fill="#1d4e6b" stroke="#1d4e6b"></path><path d="M117.5 129.5L131.5 212L223 131.5Z" fill="#15384f" stroke="#15384f"></path><path d="M223 131.5L131.5 212L221 234Z" fill="#112e42" stroke="#112e42"></path><path d="M333.5 0L223 0L318.5 121.5Z" fill="#112e42" stroke="#112e42"></path><path d="M762.5 450L900 450L796.5 330.5Z" fill="#0c2435" stroke="#0c2435"></path><path d="M223 0L117.5 129.5L223 131.5Z" fill="#112e42" stroke="#112e42"></path><path d="M0 237L0 312.5L130.5 328.5Z" fill="#277297" stroke="#277297"></path><path d="M900 230L900 93.5L803.5 125.5Z" fill="#205a7a" stroke="#205a7a"></path><path d="M0 450L119.5 450L130.5 328.5Z" fill="#297ea6" stroke="#297ea6"></path><path d="M130.5 328.5L119.5 450L216 450Z" fill="#246688" stroke="#246688"></path><path d="M900 93.5L900 0L768.5 0Z" fill="#297ea6" stroke="#297ea6"></path><path d="M223 0L96.5 0L117.5 129.5Z" fill="#205a7a" stroke="#205a7a"></path><path d="M0 237L130.5 328.5L131.5 212Z" fill="#0c2435" stroke="#0c2435"></path><path d="M0 237L131.5 212L117.5 129.5Z" fill="#205a7a" stroke="#205a7a"></path><path d="M0 101.5L0 237L117.5 129.5Z" fill="#00101c" stroke="#00101c"></path><path d="M0 312.5L0 450L130.5 328.5Z" fill="#19435d" stroke="#19435d"></path><path d="M96.5 0L0 101.5L117.5 129.5Z" fill="#246688" stroke="#246688"></path><path d="M96.5 0L0 0L0 101.5Z" fill="#0c2435" stroke="#0c2435"></path></g></svg>
